<mxfile host="app.diagrams.net" agent="Mozilla/5.0 (Windows NT 10.0; Win64; x64; rv:130.0) Gecko/20100101 Firefox/130.0" version="24.7.16">
  <diagram name="Page-1" id="iBJQancwVzPZnX72XmY8">
    <mxGraphModel dx="1167" dy="568" grid="1" gridSize="10" guides="1" tooltips="1" connect="1" arrows="1" fold="1" page="1" pageScale="1" pageWidth="850" pageHeight="1100" math="0" shadow="0">
      <root>
        <mxCell id="0" />
        <mxCell id="1" parent="0" />
        <mxCell id="CpTIfCaLCPEgQuCKB-eE-1" value="&lt;div&gt;Virtual Triage&lt;/div&gt;&lt;div&gt;Clinician&lt;br&gt;&lt;/div&gt;" style="shape=umlActor;verticalLabelPosition=bottom;verticalAlign=top;html=1;outlineConnect=0;" vertex="1" parent="1">
          <mxGeometry x="40" y="240" width="30" height="60" as="geometry" />
        </mxCell>
        <mxCell id="CpTIfCaLCPEgQuCKB-eE-2" value="Vertical Container" style="swimlane;whiteSpace=wrap;html=1;" vertex="1" parent="1">
          <mxGeometry x="200" y="60" width="370" height="410" as="geometry" />
        </mxCell>
        <mxCell id="CpTIfCaLCPEgQuCKB-eE-3" value="Login to System" style="ellipse;whiteSpace=wrap;html=1;" vertex="1" parent="CpTIfCaLCPEgQuCKB-eE-2">
          <mxGeometry x="60" y="40" width="110" height="30" as="geometry" />
        </mxCell>
        <mxCell id="CpTIfCaLCPEgQuCKB-eE-4" value="View triage&#39;s" style="ellipse;whiteSpace=wrap;html=1;" vertex="1" parent="CpTIfCaLCPEgQuCKB-eE-2">
          <mxGeometry x="60" y="100" width="110" height="30" as="geometry" />
        </mxCell>
        <mxCell id="CpTIfCaLCPEgQuCKB-eE-8" value="&lt;div&gt;Review Triage&lt;/div&gt;" style="ellipse;whiteSpace=wrap;html=1;" vertex="1" parent="CpTIfCaLCPEgQuCKB-eE-2">
          <mxGeometry x="10" y="230" width="110" height="30" as="geometry" />
        </mxCell>
        <mxCell id="CpTIfCaLCPEgQuCKB-eE-9" value="Select Patient" style="ellipse;whiteSpace=wrap;html=1;" vertex="1" parent="CpTIfCaLCPEgQuCKB-eE-2">
          <mxGeometry x="60" y="160" width="110" height="30" as="geometry" />
        </mxCell>
        <mxCell id="CpTIfCaLCPEgQuCKB-eE-10" value="&lt;div&gt;Delete Triage&lt;br&gt;&lt;/div&gt;" style="ellipse;whiteSpace=wrap;html=1;" vertex="1" parent="CpTIfCaLCPEgQuCKB-eE-2">
          <mxGeometry x="130" y="230" width="110" height="30" as="geometry" />
        </mxCell>
        <mxCell id="CpTIfCaLCPEgQuCKB-eE-11" value="Refer Patient to ED" style="ellipse;whiteSpace=wrap;html=1;" vertex="1" parent="CpTIfCaLCPEgQuCKB-eE-2">
          <mxGeometry x="10" y="300" width="110" height="30" as="geometry" />
        </mxCell>
        <mxCell id="CpTIfCaLCPEgQuCKB-eE-12" value="Refer Patient to ED" style="ellipse;whiteSpace=wrap;html=1;" vertex="1" parent="CpTIfCaLCPEgQuCKB-eE-2">
          <mxGeometry x="130" y="300" width="110" height="30" as="geometry" />
        </mxCell>
      </root>
    </mxGraphModel>
  </diagram>
</mxfile>
